<svg width="30" height="30" viewBox="0 0 30 30" fill="none" xmlns="http://www.w3.org/2000/svg">
<g id="001-medical">
<g id="Group">
<path id="Vector" d="M25.1322 0C23.4163 0 22.0253 1.39102 22.0253 3.10693V12.3773H27.3602C27.8456 12.3773 28.2391 11.9838 28.2391 11.4984V3.10693C28.2391 1.39102 26.8481 0 25.1322 0V0Z" fill="#FF82AC"/>
<path id="Vector_2" d="M10.6266 22.0898C10.6266 16.7805 14.9456 12.4076 20.326 12.4223V3.48551C20.326 2.14857 20.8293 0.927129 21.6559 0H6.15406C3.73179 0 1.7607 1.97109 1.7607 4.39336V29.1053C1.7607 29.8959 2.7279 30.2844 3.27476 29.7129L4.39917 28.5387L5.58687 29.727C5.92964 30.0697 6.48628 30.0697 6.82964 29.727L7.95523 28.602L9.09195 29.7293C9.43472 30.0691 9.98726 30.0691 10.33 29.7293L11.4849 28.5844L12.6404 29.7293C12.9826 30.0691 13.5345 30.0691 13.8773 29.7299L14.1011 29.5084C11.9219 27.6864 10.6266 24.9923 10.6266 22.0898ZM8.87081 7.08984H10.6054V5.35523C10.6054 4.86984 10.9989 4.47633 11.4843 4.47633C11.9697 4.47633 12.3632 4.86984 12.3632 5.35523V7.08984H14.0978C14.5832 7.08984 14.9768 7.48336 14.9768 7.96875C14.9768 8.45414 14.5832 8.84766 14.0978 8.84766H12.3632V10.5823C12.3632 11.0677 11.9697 11.4612 11.4843 11.4612C10.9989 11.4612 10.6054 11.0677 10.6054 10.5823V8.84766H8.87081C8.38542 8.84766 7.99191 8.45414 7.99191 7.96875C7.99191 7.48336 8.38542 7.08984 8.87081 7.08984ZM6.21083 13.2451H12.1289C12.6143 13.2451 13.0078 13.6386 13.0078 14.124C13.0078 14.6094 12.6143 15.0029 12.1289 15.0029H6.21083C5.72544 15.0029 5.33193 14.6094 5.33193 14.124C5.33193 13.6386 5.72544 13.2451 6.21083 13.2451ZM9.14345 22.0283H6.20497C5.71958 22.0283 5.32607 21.6348 5.32607 21.1494C5.32607 20.664 5.71958 20.2705 6.20497 20.2705H9.14345C9.62884 20.2705 10.0224 20.664 10.0224 21.1494C10.0224 21.6348 9.62884 22.0283 9.14345 22.0283ZM9.72945 18.5186H6.20784C5.72245 18.5186 5.32894 18.125 5.32894 17.6396C5.32894 17.1543 5.72245 16.7607 6.20784 16.7607H9.72945C10.2148 16.7607 10.6084 17.1543 10.6084 17.6396C10.6084 18.125 10.2148 18.5186 9.72945 18.5186Z" fill="#FF82AC"/>
<path id="Vector_3" d="M20.2946 14.1797C15.9329 14.1797 12.3844 17.7282 12.3844 22.0898C12.3844 26.4515 15.9329 30 20.2946 30C24.6562 30 28.2047 26.4515 28.2047 22.0898C28.2047 17.7282 24.6562 14.1797 20.2946 14.1797ZM21.1762 25.4747V25.5583C21.1762 26.0437 20.7827 26.4372 20.2973 26.4372C19.8119 26.4372 19.4184 26.0437 19.4184 25.5583V25.5434C19.0247 25.4496 18.6595 25.2945 18.3698 25.105C17.9636 24.8392 17.8497 24.2946 18.1155 23.8883C18.3813 23.482 18.9259 23.3682 19.3322 23.634C19.6919 23.8693 20.2848 23.9587 20.5763 23.8216C20.7651 23.7327 20.9113 23.543 20.9316 23.3603C20.9751 22.9712 20.3654 22.7541 20.0014 22.6103C19.4505 22.3927 18.7648 22.1219 18.3668 21.4033C17.7994 20.3791 18.2963 19.0287 19.4184 18.5669V18.5227C19.4184 18.0373 19.8119 17.6437 20.2973 17.6437C20.7779 17.6437 21.1679 18.0296 21.1755 18.5084C21.4919 18.6073 21.7833 18.7655 22.0166 18.9807C22.3735 19.3098 22.3959 19.8658 22.0668 20.2226C21.7377 20.5795 21.1816 20.6019 20.8248 20.2728C20.6803 20.1394 20.2347 20.0856 20.041 20.2156C19.9108 20.3031 19.8598 20.4709 19.9044 20.5514C20.09 20.8865 21.0621 21.0013 21.7977 21.5746C23.3005 22.7457 22.7777 24.8604 21.1762 25.4747Z" fill="#FF82AC"/>
</g>
</g>
</svg>
