<svg width="18" height="18" viewBox="0 0 18 18" fill="none" xmlns="http://www.w3.org/2000/svg">
<g id="Group 692">
<path id="Vector (Stroke)" fill-rule="evenodd" clip-rule="evenodd" d="M18 16.4838C18 17.1567 17.4801 17.7022 16.8387 17.7022L1.16129 17.7022C0.519928 17.7022 -6.78525e-08 17.1567 -4.37114e-08 16.4838C-1.95703e-08 15.8109 0.519928 15.2654 1.16129 15.2654L16.8387 15.2654C17.4801 15.2654 18 15.8109 18 16.4838Z" fill="#343C6A"/>
<path id="Vector (Stroke)_2" fill-rule="evenodd" clip-rule="evenodd" d="M18 9.17349C18 9.8464 17.5523 10.3919 17 10.3919L1 10.3919C0.447716 10.3919 -6.78525e-08 9.8464 -4.37114e-08 9.17349C-1.95702e-08 8.50058 0.447716 7.95508 1 7.95508L17 7.95508C17.5523 7.95508 18 8.50058 18 9.17349Z" fill="#343C6A"/>
<path id="Vector (Stroke)_3" fill-rule="evenodd" clip-rule="evenodd" d="M18 1.86294C18 2.53585 17.4801 3.08135 16.8387 3.08135L1.16129 3.08136C0.519928 3.08136 -6.78526e-08 2.53586 -4.37115e-08 1.86295C-1.95704e-08 1.19004 0.519928 0.644536 1.16129 0.644536L16.8387 0.644531C17.4801 0.644531 18 1.19003 18 1.86294Z" fill="#343C6A"/>
</g>
</svg>
